<svg width="170pt" height="40pt" viewBox="0 0 59.972 10.583" xmlns="http://www.w3.org/2000/svg"><defs><linearGradient id="b" x2="0" y2="48.374" gradientTransform="scale(2.41868 .41345)" x1="0" y1="0" gradientUnits="userSpaceOnUse"><stop offset="0" stop-color="#bbb" stop-opacity=".1"/><stop offset="1" stop-opacity=".1"/></linearGradient><clipPath id="a"><rect width="117" height="20" rx="3" fill="#fff"/></clipPath></defs><g clip-path="url(#a)" transform="matrix(.4562 0 0 .4562 3.298 .73)"><path fill="#555" d="M0 0h64v20H0z"/><path fill="#f87668" d="M64 0h53v20H64z"/><path fill="url(#b)" style="fill:url(#b)" d="M0 0h117v20H0z"/></g><text aria-hidden="true" x="415" y="150" fill="#010101" fill-opacity=".3" transform="translate(3.298 .73) scale(.04562)" textLength="370" style="font-size:110px;font-family:Verdana,Geneva,'DejaVu Sans',sans-serif;text-anchor:middle;text-rendering:geometricPrecision">donate</text><text x="415" y="140" transform="translate(3.298 .73) scale(.04562)" fill="#fff" textLength="370" style="font-size:110px;font-family:Verdana,Geneva,'DejaVu Sans',sans-serif;text-anchor:middle;text-rendering:geometricPrecision">donate</text><text aria-hidden="true" x="895" y="150" fill="#010101" fill-opacity=".3" transform="translate(3.298 .73) scale(.04562)" textLength="430" style="font-size:110px;font-family:Verdana,Geneva,'DejaVu Sans',sans-serif;text-anchor:middle;text-rendering:geometricPrecision">patreon</text><text x="895" y="140" transform="translate(3.298 .73) scale(.04562)" fill="#fff" textLength="430" style="font-size:110px;font-family:Verdana,Geneva,'DejaVu Sans',sans-serif;text-anchor:middle;text-rendering:geometricPrecision">patreon</text><path d="M18.867 7.23c-.003-1.886-1.47-3.432-3.192-3.989-2.14-.692-4.96-.591-7.005.372-2.475 1.168-3.253 3.73-3.282 6.281-.023 2.1.184 7.625 3.305 7.666 2.315.028 2.662-2.956 3.734-4.393.762-1.023 1.745-1.312 2.953-1.612 2.077-.513 3.493-2.154 3.49-4.325z" style="display:inline;fill:#fff;stroke-width:.0288387" transform="matrix(.4562 0 0 .4562 3.298 .73)"/></svg>
