<svg xmlns="http://www.w3.org/2000/svg" xmlns:xlink="http://www.w3.org/1999/xlink" width="400" height="600"><defs><linearGradient xlink:href="#a" id="c" x1="22.214" x2="104.218" y1="98.659" y2="98.119" gradientUnits="userSpaceOnUse"/><linearGradient id="a"><stop offset="0" stop-color="#262860"/><stop offset="1" stop-color="#3c429a"/></linearGradient><linearGradient xlink:href="#a" id="d" x1="22.212" x2="104.216" y1="98.453" y2="97.914" gradientUnits="userSpaceOnUse"/><linearGradient xlink:href="#a" id="e" x1="22.211" x2="104.215" y1="98.206" y2="97.667" gradientUnits="userSpaceOnUse"/><linearGradient xlink:href="#a" id="f" x1="22.212" x2="104.216" y1="98.392" y2="97.852" gradientUnits="userSpaceOnUse"/></defs><linearGradient id="b" x1="370" x2="290" gradientTransform="translate(10.472 476.937)scale(.97632)" gradientUnits="userSpaceOnUse"><stop stop-color="#1F5CD7"/><stop offset="1" stop-color="#02AEFF"/></linearGradient><path fill="#0f754e" d="M40.737 489.63h32.219c2.93 0 11.716-.978 15.621 12.692 2.93 8.786 6.835 22.455 12.693 42.958h1.952c5.858-21.48 10.74-36.125 12.692-42.958 3.906-13.67 13.67-12.693 17.574-12.693h30.267v93.727h-31.243v-55.65h-1.952l-16.598 55.651H90.53l-16.597-55.65h-2.929v55.65H40.737m135.71-93.728h31.243v55.65h2.929l20.502-45.887c3.904-8.787 12.692-9.763 12.692-9.763h29.289v93.727H241.86v-55.65h-1.953l-20.503 45.888c-3.905 8.787-13.668 9.763-13.668 9.763h-29.29m138.638-28.313v28.313h-29.289v-48.816h95.68c-3.906 11.716-17.575 20.503-33.196 20.503" style="stroke-width:.961546"/><path fill="url(#b)" d="M383.428 528.682c3.905-17.574-7.81-39.053-33.195-39.053h-66.39c1.952 20.503 19.526 39.053 38.076 39.053" style="fill:url(#b);stroke-width:.976324"/><path fill="#1d1d1b" d="M93.438 245.936c-.82-.82-2.051-1.64-3.281-2.46-1.23-.411-2.871-.821-4.511-.821-.82 0-1.64 0-2.461.41-.82 0-1.64.41-2.87.82-.821.41-1.641.82-2.461 1.64s-1.64 1.641-2.051 2.461a8.05 8.05 0 0 0-3.69-3.69c-1.641-.82-3.282-1.231-5.332-1.231h-2.05c-.821 0-1.641.41-2.051.82-.82.41-1.23.82-2.05 1.23-.821.41-1.231 1.23-1.641 2.051v-3.28h-5.742v27.476h5.742v-15.584c0-1.23 0-2.05.41-3.28.41-.82.82-1.641 1.64-2.461s1.23-1.23 2.05-1.23c.82-.41 1.641-.41 2.871-.41 2.051 0 3.691.82 4.512 2.05 1.23 1.23 1.64 2.87 1.64 5.331v15.584h5.742v-15.584c0-1.23 0-2.05.41-3.28.41-.82.82-1.641 1.64-2.461s1.23-1.23 2.05-1.23c.82-.41 1.641-.41 2.871-.41 2.05 0 3.691.82 4.512 2.05 1.23 1.23 1.64 2.87 1.64 5.331v15.584h5.741v-17.634c0-1.64-.41-3.281-.82-4.511-.82-1.23-1.64-2.05-2.46-3.281m30.757 1.23c-.82-1.23-2.05-2.05-3.69-2.87-1.23-.82-3.281-1.231-5.332-1.231s-3.69.41-5.331 1.23c-1.64.82-3.281 1.64-4.511 2.871-1.23 1.23-2.05 2.87-2.871 4.511-.82 1.64-1.23 3.691-1.23 5.742 0 2.05.41 4.1 1.23 5.741.82 1.64 1.64 3.281 2.87 4.511s2.871 2.461 4.512 2.871c1.64.82 3.69 1.23 5.331 1.23 2.05 0 3.691-.41 5.332-1.23 1.23-.82 2.46-1.64 3.69-2.87v3.69h6.152v-27.887h-6.152zm0 13.944c-.41 1.23-.82 2.05-1.64 2.87s-1.64 1.23-2.46 2.05c-1.23.411-2.051.821-3.281.821s-2.461-.41-3.691-.82-2.05-1.23-2.461-2.05c-.82-.82-1.23-1.641-1.64-2.871s-.41-2.05-.41-3.281c0-1.23 0-2.46.41-3.281.41-1.23.82-2.05 1.64-2.87s1.64-1.641 2.46-2.051c1.231-.41 2.051-.82 3.692-.82 1.23 0 2.46.41 3.28.82 1.23.41 2.051 1.23 2.461 2.05.82.82 1.23 1.64 1.64 2.871.41 1.23.41 2.46.41 3.69 0 .411 0 1.641-.41 2.872m34.04-3.691c-1.641-1.23-4.102-2.05-6.973-2.46l-2.87-.411c-.82 0-1.23-.41-1.64-.41s-1.231-.41-1.641-.41c-.41-.41-.82-.41-.82-.82-.41-.41-.41-.82-.41-1.23q0-1.231 1.23-2.461c.82-.41 2.05-.82 3.69-.82.821 0 1.641 0 2.461.41.82 0 1.64.41 2.461.41.82.41 1.64.41 2.05.82.82.41 1.231.41 1.641.82l2.46-4.921c-1.64-.82-3.28-1.64-4.92-2.05-2.051-.41-4.102-.821-6.152-.821-1.64 0-3.281.41-4.921.82-1.23.41-2.461.82-3.691 1.64-.82.82-1.64 1.641-2.461 2.871-.41 1.23-.82 2.461-.82 3.691 0 2.05.82 4.101 2.46 5.332s4.101 2.46 6.972 2.87l2.871.41c1.64.41 2.87.41 3.69 1.23.821.411 1.231 1.231 1.231 2.051 0 1.23-.41 2.05-1.64 2.461-1.23.41-2.46.82-4.921.82-1.23 0-2.051 0-2.871-.41-.82 0-1.64-.41-2.46-.82s-1.231-.41-2.051-.82c-.41-.41-1.23-.82-1.64-1.23l-2.872 4.51c.82.82 2.051 1.23 3.281 1.641 1.23.41 2.05.82 3.281 1.23 1.23.41 2.05.41 2.87.41h2.462c2.05 0 3.69-.41 5.33-.82s2.872-1.23 4.102-2.05 2.05-1.64 2.46-2.871c.41-1.23.82-2.46.82-3.691.41-1.64-.41-3.28-2.05-4.921m57.004-10.253c-1.23-1.23-2.46-2.46-4.101-2.87-1.64-.82-3.28-1.231-5.331-1.231s-4.102.41-5.742 1.23-3.28 1.64-4.511 2.871c-1.23 1.23-2.05 2.87-2.87 4.511-.821 1.64-.821 3.691-.821 6.152q0 3.075 1.23 6.151c.82 1.64 1.64 3.281 2.871 4.512 1.23 1.23 2.87 2.46 4.511 2.87 1.64.82 3.691 1.23 5.742 1.23 2.05 0 4.1-.41 6.151-.82 2.05-.41 3.691-1.64 5.332-2.87l-2.871-4.511c-1.23.82-2.46 1.64-3.691 2.05s-2.87.82-4.101.82c-.82 0-2.05 0-2.87-.41l-2.462-1.23c-.82-.41-1.23-1.23-2.05-2.05-.41-.82-.82-2.051-1.23-3.282h20.505v-2.46c0-2.05-.41-4.101-.82-5.742-.82-2.46-2.05-3.69-2.871-4.92m-17.224 8.202c0-.82.41-2.05.82-2.87s.82-1.641 1.64-2.051c.41-.41 1.23-1.23 2.05-1.23.82-.41 1.641-.41 2.871-.41 2.051 0 3.691.41 4.922 1.64q1.845 1.845 2.46 4.921zm97.605-8.202c-.82-1.23-2.05-2.05-3.691-2.87-1.23-.82-3.281-1.231-5.332-1.231s-3.69.41-5.331 1.23c-1.64.82-3.28 1.64-4.511 2.871-1.23 1.23-2.05 2.87-2.87 4.511-.821 1.64-1.231 3.691-1.231 5.742 0 2.05.41 4.1 1.23 5.741.82 1.64 1.64 3.281 2.87 4.511s2.872 2.461 4.512 2.871c1.64.82 3.691 1.23 5.331 1.23 2.05 0 3.691-.41 5.332-1.23 1.64-.82 2.46-1.64 3.69-2.87v3.69h6.152v-27.887h-6.151zm0 13.944c-.41 1.23-.82 2.05-1.64 2.87s-1.641 1.23-2.461 2.05c-.82.411-2.05.821-3.281.821-1.23 0-2.46-.41-3.691-.82s-2.05-1.23-2.46-2.05-1.231-1.641-1.641-2.871-.41-2.05-.41-3.281c0-1.23 0-2.46.41-3.281.41-1.23.82-2.05 1.64-2.87s1.64-1.641 2.46-2.051c1.231-.41 2.051-.82 3.692-.82 1.23 0 2.46.41 3.28.82 1.231.41 2.051 1.23 2.461 2.05.82.82 1.23 1.64 1.64 2.871.41 1.23.41 2.46.41 3.69 0 .411 0 1.641-.41 2.872m-111.139 4.92c-.82.411-2.05.411-2.87.411s-1.231 0-1.641-.41c-.41 0-.82-.41-1.23-.82s-.82-.82-.82-1.64c-.41-.82-.41-1.641-.41-2.461v-12.303h9.842v-5.332h-9.843v-8.612h-6.151v8.612h-5.742v5.332h5.742v12.303c0 3.69.82 6.561 2.46 8.202q2.46 2.46 7.382 2.46c1.64 0 3.281-.41 4.921-.82l2.461-1.23-2.05-4.921c-.82.41-1.64.82-2.05 1.23m54.544-22.965c-1.64 0-3.28.41-4.511.82-1.23.82-2.46 2.05-3.28 3.281v-3.69h-5.742v27.886h5.741V256.19c0-1.23 0-2.05.41-3.28l1.23-2.461c.41-.82 1.23-1.23 2.051-1.64.82-.41 1.64-.41 2.87-.41.821 0 1.641 0 2.461.41.41 0 .82 0 1.23.41l1.641-5.742c-.41 0-.82-.41-1.64-.41zm84.482 0c-1.64 0-3.28.41-4.511.82-1.23.82-2.46 2.05-3.281 3.281v-3.69h-5.331v27.886h5.741V256.19c0-1.23 0-2.05.41-3.28l1.23-2.461c.41-.82 1.23-1.23 2.051-1.64.82-.41 1.64-.41 2.87-.41.82 0 1.641 0 2.461.41.41 0 .82 0 1.23.41l1.641-5.742c-.41 0-.82-.41-1.64-.41zm28.297-10.663v14.764c-.82-1.23-2.05-2.05-3.69-2.87-1.231-.82-3.282-1.231-5.332-1.231s-3.691.41-5.331 1.23-3.281 1.64-4.512 2.871c-1.23 1.23-2.05 2.87-2.87 4.511-.82 1.64-1.23 3.691-1.23 5.742 0 2.05.41 4.1 1.23 5.741.82 1.64 1.64 3.281 2.87 4.511s2.871 2.461 4.512 2.871c1.64.82 3.69 1.23 5.33 1.23 2.051 0 3.692-.41 5.332-1.23 1.23-.82 2.46-1.64 3.691-2.87v3.69h6.152v-38.96zm-.41 28.708c-.41 1.23-.82 2.05-1.64 2.87s-1.64 1.23-2.46 2.05c-1.231.411-2.051.821-3.282.821s-2.46-.41-3.69-.82c-1.231-.41-2.051-1.23-2.461-2.05-.82-.82-1.23-1.641-1.64-2.871s-.41-2.05-.41-3.281c0-1.23 0-2.46.41-3.281.41-1.23.82-2.05 1.64-2.87s1.64-1.641 2.46-2.051c1.23-.41 2.05-.82 3.691-.82 1.23 0 2.46.41 3.281.82.82.41 2.05 1.23 2.46 2.05.82.82 1.231 1.64 1.641 2.871.41 1.23.41 2.46.41 3.69.41.411 0 1.641-.41 2.872m-97.605-9.843c.82-.82 1.64-1.23 2.87-1.64s2.051-.82 3.282-.82 2.46.41 3.69.82 2.051.82 2.871 1.64l2.871-4.921c-1.23-.82-2.46-1.64-3.691-2.05q-2.46-1.23-6.152-1.231-3.075 0-6.151 1.23c-1.64.82-3.281 1.64-4.921 3.281-1.23 1.23-2.461 2.87-3.281 4.511-.82 1.64-1.23 3.691-1.23 5.742 0 2.05.41 4.1 1.23 5.741.82 1.64 1.64 3.281 3.28 4.511 1.23 1.23 2.871 2.461 4.922 3.281q2.46 1.23 6.151 1.23 3.075 0 6.152-1.23c1.23-.41 2.46-1.23 3.691-2.05l-2.87-5.332c-.821.82-1.641 1.23-2.872 1.64s-2.46.821-3.69.821-2.461-.41-3.281-.82c-1.23-.41-2.05-1.23-2.871-1.64-.82-.82-1.23-1.641-1.64-2.871s-.82-2.461-.82-3.691.41-2.46.82-3.691c0-.82.82-1.64 1.64-2.46m116.88 15.994c.41 0 .82 0 1.23.41.41 0 .82.41.82.41l.82.82c0 .41.41.82.41 1.231 0 .41 0 .82-.41 1.23 0 .41-.41.82-.82.82-.41.41-.41.41-.82.41s-.82.41-1.23.41-.82 0-1.23-.41c-.41 0-.82-.41-.82-.41l-.82-.82c0-.41-.41-.82-.41-1.23s0-.82.41-1.23c0-.41.41-.82.82-.82.41-.41.41-.41.82-.41s.82-.41 1.23-.41m0 4.922h.82c.41 0 .41-.41.82-.41 0 0 .41-.41.41-.82v-1.641c0-.41-.41-.41-.41-.82 0 0-.41-.41-.82-.41h-1.64c-.41 0-.41.41-.82.41 0 0-.41.41-.41.82v1.64c0 .41.41.41.41.82 0 0 .41.41.82.41zm0-3.281c.41 0 .41 0 .82.41 0 0 .41.41.41.82v.41l-.41.41.82.82h-.82l-.82-.82v.41h-.82v-2.46zm-.41.82v.41h.82-.82z"/><path fill="#e20d17" d="M165.206 113.882c0-33.219 15.584-63.157 39.78-82.021-18.044-14.354-40.6-22.966-65.206-22.966-57.825 0-104.577 47.162-104.577 104.987S81.955 218.459 139.78 218.459c24.606 0 47.162-8.613 64.796-22.556-24.196-19.275-39.37-48.803-39.37-82.021"/><path fill="#ea610a" d="M165.206 113.882c0 33.218 15.584 63.156 39.78 82.02 24.197-19.274 39.78-48.802 39.78-82.02 0-33.219-15.583-63.157-39.78-82.021-24.606 18.864-39.78 48.392-39.78 82.02"/><path fill="#f59e00" d="M367.388 170.476v-2.87h-1.23v-.82h3.28v.82h-1.23v2.87zm6.562 0v-2.87l-.82 2.46h-.82l-.82-2.46v2.87h-.82v-4.1h1.23l.82 2.46.82-2.46h1.23v4.1zM269.783 8.895c-24.606 0-47.162 8.612-64.797 22.555 24.197 19.275 39.78 48.803 39.78 82.022 0 33.218-15.583 63.156-39.78 82.02 18.045 14.354 40.6 22.557 64.797 22.557 57.825 0 104.577-46.752 104.577-104.577S327.608 8.895 269.783 8.895"/><path fill="url(#c)" d="M104.7 111.8h-6.6c-.2-1.2-.5-2.3-.7-3.4-.1-.5-.2-.7-.8-.7h-7.9c-.4 0-.6.1-.7.5-.4 1.1-.8 2.2-1.2 3.2-.1.1-.2.3-.4.3h-7.2c.4-1.1.9-2.1 1.3-3.1 3.1-7.3 6.1-14.6 9.2-21.9.7-1.6 1.7-2.2 3.4-2.2h5.8l.6 2.7c1.5 7.2 3 14.5 4.5 21.7.2.9.4 1.8.6 2.8.1 0 .1 0 .1.1m-8.6-9.7c-.7-3.4-1.4-6.7-2.1-10h-.1c-1.2 3.3-2.4 6.6-3.6 10z" style="fill:url(#c)" transform="translate(-45.178 -19.813)scale(4.10106)"/><path fill="url(#d)" d="M76 84c.9.2 1.7.3 2.6.5.8.2 1.6.4 2.4.7-.4 2-.8 3.9-1.2 5.8-1.1-.3-2.2-.7-3.2-.9-1.5-.3-3-.5-4.5 0-.6.2-1.2.5-1.7.9-.8.7-.8 1.7 0 2.4.5.5 1.2.9 1.8 1.3 1.4.9 2.9 1.6 4.3 2.5 1.6 1.1 2.8 2.6 3.1 4.6q.6 5.4-3.9 8.4c-1.9 1.3-4 1.8-6.3 2-3.1.3-6.2-.1-9.1-1-.2-.1-.4-.1-.6-.2-.1 0-.1-.1-.2-.1.4-2 .8-3.9 1.3-6l1.5.6c2.3.9 4.7 1.4 7.2.9.6-.1 1.3-.4 1.9-.8 1.2-.8 1.3-2.3.2-3.2-.7-.6-1.6-1.1-2.4-1.6-1.3-.8-2.6-1.4-3.8-2.3-1.5-1.1-2.7-2.6-2.9-4.5-.3-2.9.8-5.3 3-7.2 2-1.6 4.3-2.3 6.8-2.6.1 0 .3-.1.4-.1 1.1-.1 2.2-.1 3.3-.1" style="fill:url(#d)" transform="translate(-45.178 -19.813)scale(4.10106)"/><path fill="url(#e)" d="M50.5 84.5c-.4.9-.7 1.7-1.1 2.6-3.4 8.1-6.8 16.1-10.1 24.2-.2.4-.4.5-.7.5h-6.4c-.5 0-.6-.2-.7-.6-1.8-7.1-3.7-14.1-5.4-21.2-.3-1.3-1-2.2-2.2-2.7-2-.9-4-1.5-6.1-2-.1 0-.2 0-.3-.1 0-.8 0-.8.8-.8h11.2c1.8 0 3.1 1 3.4 2.8.9 5 1.9 9.9 2.8 14.9 0 .2.1.4.1.7.1-.2.2-.3.2-.4 2.3-5.9 4.6-11.7 7-17.6.1-.3.3-.4.6-.4h6.5c0 .1.2.1.4.1" style="fill:url(#e)" transform="translate(-45.178 -19.813)scale(4.10106)"/><path fill="url(#f)" d="M47.6 111.8c2-9.1 3.9-18.2 5.8-27.3h7.1c-.3 1.4-.6 2.7-.9 4.1l-4.8 22.5c-.1.5-.3.7-.8.7z" style="fill:url(#f)" transform="translate(-45.178 -19.813)scale(4.10106)"/></svg>