<svg xmlns="http://www.w3.org/2000/svg" xmlns:xlink="http://www.w3.org/1999/xlink" width="600" height="300"><path d="M176.598 171.566c1.691-42.665 45.83-13.693 46.429-31.639.194-5.863-1.123-6.938-1.085-10.326-.066-2.247.402-3.635.784-4.856-.105-3.44-1.984-4.893-9.204-4.865 6.864-.634 9.811.195 9.564-4.092-2.101-2.296-3.163-6.108-3.095-12.139.083-7.337 8.728.117 8.83-7.81.508-7.738-14.63-15.322-15.199-22.914-.523-6.6.67-9.226.304-16.743-.995-22.082-35.524-41.548-58.538-40.737-25.48.922-42.892 8.177-43.483 31.94-1.064 43.706 18.901 48.26 21.53 124.73" font-size="12" fill="#fc0" fill-opacity=".926" fill-rule="evenodd"/><g transform="matrix(.29604 0 0 .29604 124.031 33.602)"><path d="M53.918 30.25H182.97" fill="none" stroke="#000" stroke-width="5"/><path d="M196.874 30.53l-21.45-12.35v24.734z" id="a" fill-rule="evenodd"/></g><g transform="matrix(.29604 0 0 .29604 124.031 33.602)"><path d="M49.229 61.218l64.43 111.598" fill="none" stroke="#000" stroke-width="5"/><use xlink:href="#a" transform="rotate(-120 124.631 84.398)" width="250" height="225"/></g><g transform="matrix(.29604 0 0 .29604 124.031 33.602)"><path d="M143.455 161.53l58.34-101.047" fill="none" stroke="#000" stroke-width="5"/><use xlink:href="#a" transform="rotate(-60 218.626 29.702)" width="250" height="225"/><use xlink:href="#a" transform="rotate(120 125.53 84.409)" width="250" height="225"/></g><g transform="matrix(.29604 0 0 .29604 124.031 33.602)"><circle id="b" transform="matrix(.8392 0 0 .8392 2.628 -137.84)" cx="35" cy="200" r="23" fill="#007fff" fill-rule="evenodd" stroke="#000070" stroke-width="4.469"/><use height="225" width="250" transform="translate(186)" xlink:href="#b"/><use height="225" width="250" transform="translate(93 161)" xlink:href="#b"/></g><path d="M444.675 14.059h-96.502v154.403h135.103V52.66zm0 13.646L469.63 52.66h-24.955zm28.95 131.106H357.825V23.71h77.201v38.6h38.6zM425.376 52.66h-57.901v-9.65h57.9zm-57.901 19.3h96.501v9.65h-96.501zm0 28.95h96.501v9.65h-96.501zm0 28.95h96.501v9.651h-96.501z" stroke="#fff" stroke-width=".665"/><g transform="translate(359.758 49.1) scale(.46065)" fill="red" stroke="red" fill-rule="evenodd"><path d="M53.918 30.25H182.97" fill-opacity=".75" stroke-width="5"/><path id="c" d="M196.874 30.53l-21.45-12.35v24.734z"/></g><g transform="translate(359.758 49.1) scale(.46065)" fill="red" stroke="red"><path d="M49.229 61.218l64.43 111.598" fill-opacity=".75" fill-rule="evenodd" stroke-width="5"/><use height="225" width="250" transform="rotate(-120 124.631 84.398)" xlink:href="#c"/></g><path d="M425.84 123.509l26.875-46.548" fill="red" fill-opacity=".75" fill-rule="evenodd" stroke="red" stroke-width="2.303"/><use xlink:href="#c" transform="rotate(-60 323.11 -273.328) scale(.46065)" width="250" height="225" fill="red"/><use xlink:href="#c" transform="rotate(120 223.53 167.286) scale(.46065)" width="250" height="225" fill="red"/><circle r="8.891" cy="62.919" cx="374.499" id="d" fill="#007fff" fill-rule="evenodd" stroke-width=".665"/><use xlink:href="#d" transform="translate(85.681)" width="250" height="225"/><use xlink:href="#d" transform="translate(42.84 74.165)" width="250" height="225"/><g stroke="#fff" stroke-width="3.764"><path d="M292.752 85.057l-20.687 20.686 12.003 11.998 43.997-43.997-43.997-43.996-12.003 11.997 20.692 20.692-51.31-.005-.005 22.62z" stroke-width=".6653246399999999"/></g></svg>