<svg xmlns="http://www.w3.org/2000/svg" xmlns:xlink="http://www.w3.org/1999/xlink" width="600" height="200"><g transform="translate(0 7.08)"><path fill="#fc0" fill-opacity=".926" fill-rule="evenodd" d="M176.598 171.566c1.691-42.665 45.83-13.693 46.429-31.639.194-5.863-1.123-6.938-1.085-10.326-.066-2.247.402-3.635.784-4.856-.105-3.44-1.984-4.893-9.204-4.865 6.864-.634 9.811.195 9.564-4.092-2.101-2.296-3.163-6.108-3.095-12.139.083-7.337 8.728.117 8.83-7.81.508-7.738-14.63-15.322-15.199-22.914-.523-6.6.67-9.226.304-16.743-.995-22.082-35.524-41.548-58.538-40.737-25.48.922-42.892 8.177-43.483 31.94-1.064 43.706 18.901 48.26 21.53 124.73" font-size="12"/><g transform="translate(124.031 33.602)scale(.29604)"><path fill="none" stroke="#000" stroke-width="5" d="M53.918 30.25H182.97"/><path id="a" fill-rule="evenodd" d="m196.874 30.53-21.45-12.35v24.734Z"/></g><g transform="translate(124.031 33.602)scale(.29604)"><path fill="none" stroke="#000" stroke-width="5" d="m49.229 61.218 64.43 111.598"/><use xlink:href="#a" width="250" height="225" transform="rotate(-120 124.631 84.398)"/></g><g transform="translate(124.031 33.602)scale(.29604)"><path fill="none" stroke="#000" stroke-width="5" d="m143.455 161.53 58.34-101.047"/><use xlink:href="#a" width="250" height="225" transform="rotate(-60 218.626 29.702)"/><use xlink:href="#a" width="250" height="225" transform="rotate(120 125.53 84.409)"/></g><g transform="translate(124.031 33.602)scale(.29604)"><circle id="b" cx="35" cy="200" r="23" fill="#007fff" fill-rule="evenodd" stroke="#000070" stroke-width="4.469" transform="translate(2.628 -137.84)scale(.8392)"/><use xlink:href="#b" width="250" height="225" transform="translate(186)"/><use xlink:href="#b" width="250" height="225" transform="translate(93 161)"/></g><path stroke="#fff" stroke-width=".665" d="M444.675 14.059h-96.502v154.403h135.103V52.66Zm0 13.646L469.63 52.66h-24.955zm28.95 131.106h-115.8V23.71h77.201v38.6h38.6zM425.376 52.66h-57.901v-9.65h57.9zm-57.901 19.3h96.501v9.65h-96.501zm0 28.95h96.501v9.65h-96.501zm0 28.95h96.501v9.651h-96.501z"/><g fill="red" fill-rule="evenodd" stroke="red" transform="translate(359.758 49.1)scale(.46065)"><path fill-opacity=".75" stroke-width="5" d="M53.918 30.25H182.97"/><path id="c" d="m196.874 30.53-21.45-12.35v24.734Z"/></g><g fill="red" stroke="red" transform="translate(359.758 49.1)scale(.46065)"><path fill-opacity=".75" fill-rule="evenodd" stroke-width="5" d="m49.229 61.218 64.43 111.598"/><use xlink:href="#c" width="250" height="225" transform="rotate(-120 124.631 84.398)"/></g><path fill="red" fill-opacity=".75" fill-rule="evenodd" stroke="red" stroke-width="2.303" d="m425.84 123.509 26.875-46.548"/><use xlink:href="#c" width="250" height="225" fill="red" transform="rotate(-60 323.11 -273.328)scale(.46065)"/><use xlink:href="#c" width="250" height="225" fill="red" transform="rotate(120 223.53 167.286)scale(.46065)"/><circle id="d" cx="374.499" cy="62.919" r="8.891" fill="#007fff" fill-rule="evenodd" stroke-width=".665"/><use xlink:href="#d" width="250" height="225" transform="translate(85.681)"/><use xlink:href="#d" width="250" height="225" transform="translate(42.84 74.165)"/><path stroke="#fff" stroke-width=".665" d="m292.752 85.057-20.687 20.686 12.003 11.998 43.997-43.997-43.997-43.996-12.003 11.997 20.692 20.692-51.31-.005-.005 22.62z"/></g></svg>