<svg xmlns="http://www.w3.org/2000/svg" width="223" height="30"><g fill="none" fill-rule="evenodd"><rect width="223" height="30" fill="#FF5E5B" rx="8"/><g fill-rule="nonzero"><path fill="#FFF" d="M41.418 7h1.608c3.1 0 5.614 2.514 5.614 5.614v.33a5.615 5.615 0 0 1-5.614 5.615h-1.608v1.69a2.59 2.59 0 0 1-2.591 2.591H26.59A2.59 2.59 0 0 1 24 20.249V8.296C24 7.58 24.58 7 25.296 7zm0 2.997v5.565h1.466a2.783 2.783 0 1 0 0-5.565z"/><path fill="#FF5E5B" d="M32.36 12.277q.6-1.757 2.846-1.757c2.245 0 3.078 2.794 1.9 4.62q-1.176 1.827-4.746 4.62-3.57-2.793-4.747-4.62c-1.177-1.826-.344-4.62 1.901-4.62q2.246 0 2.846 1.757"/></g><path fill="#FFF" fill-rule="nonzero" d="M66.2 19.14q-1.008 0-1.792-.252a4.15 4.15 0 0 1-1.47-.854q-.378-.336-.378-.742a.8.8 0 0 1 .238-.567.77.77 0 0 1 .574-.245q.266 0 .476.168.56.462 1.092.672t1.26.21q.784 0 1.351-.35t.567-.868q0-.63-.56-.987t-1.778-.539q-3.066-.448-3.066-2.856 0-.882.462-1.533a2.9 2.9 0 0 1 1.26-.994 4.5 4.5 0 0 1 1.778-.343q.882 0 1.659.266.777.265 1.295.7.406.322.406.742a.8.8 0 0 1-.238.567.76.76 0 0 1-.56.245.6.6 0 0 1-.378-.126q-.364-.294-1.015-.539t-1.169-.245q-.882 0-1.365.329-.483.33-.483.861 0 .602.497.91.497.307 1.561.504 1.204.21 1.925.539.72.33 1.085.896.364.567.364 1.505 0 .882-.497 1.547a3.2 3.2 0 0 1-1.323 1.022 4.4 4.4 0 0 1-1.778.357m10.626-7.63q.364 0 .602.245a.84.84 0 0 1 .238.609v3.556q0 1.512-.833 2.366t-2.373.854-2.366-.854q-.825-.855-.826-2.366v-3.556a.84.84 0 0 1 .238-.609.8.8 0 0 1 .602-.245q.364 0 .602.245a.84.84 0 0 1 .238.609v3.556q0 .855.378 1.267.378.413 1.134.413.77 0 1.148-.413t.378-1.267v-3.556a.84.84 0 0 1 .238-.609.8.8 0 0 1 .602-.245m6.538-.14a3.2 3.2 0 0 1 1.75.497q.785.497 1.239 1.379t.455 2.002-.448 2.009a3.44 3.44 0 0 1-1.225 1.386 3.1 3.1 0 0 1-1.715.497q-.672 0-1.267-.273a3.4 3.4 0 0 1-.987-.665v2.744a.84.84 0 0 1-.238.609.8.8 0 0 1-.602.245.82.82 0 0 1-.602-.238.83.83 0 0 1-.238-.616v-8.582a.84.84 0 0 1 .238-.609.8.8 0 0 1 .602-.245q.364 0 .602.245a.84.84 0 0 1 .238.609v.056q.336-.42.938-.735t1.26-.315m-.21 6.23q.895 0 1.47-.672.574-.672.574-1.68t-.567-1.673-1.477-.665-1.484.665-.574 1.673.574 1.68 1.484.672m8.932-6.23a3.2 3.2 0 0 1 1.75.497q.785.497 1.239 1.379t.455 2.002-.448 2.009a3.44 3.44 0 0 1-1.225 1.386 3.1 3.1 0 0 1-1.715.497q-.672 0-1.267-.273a3.4 3.4 0 0 1-.987-.665v2.744a.84.84 0 0 1-.238.609.8.8 0 0 1-.602.245.82.82 0 0 1-.602-.238.83.83 0 0 1-.238-.616v-8.582a.84.84 0 0 1 .238-.609.8.8 0 0 1 .602-.245q.364 0 .602.245a.84.84 0 0 1 .238.609v.056q.336-.42.938-.735t1.26-.315m-.21 6.23q.895 0 1.47-.672.574-.672.574-1.68t-.567-1.673-1.477-.665-1.484.665-.574 1.673.574 1.68 1.484.672m12.25-2.338q0 1.12-.504 2.009a3.56 3.56 0 0 1-1.379 1.379 3.9 3.9 0 0 1-1.925.49q-1.064 0-1.932-.49a3.6 3.6 0 0 1-1.372-1.379q-.504-.889-.504-2.009t.504-2.009a3.6 3.6 0 0 1 1.372-1.386 3.8 3.8 0 0 1 1.932-.497q1.05 0 1.925.497a3.6 3.6 0 0 1 1.379 1.386q.504.889.504 2.009m-1.68 0q0-.686-.287-1.225a2.1 2.1 0 0 0-.77-.833 2 2 0 0 0-1.071-.294 2 2 0 0 0-1.071.294 2.1 2.1 0 0 0-.77.833q-.287.54-.287 1.225 0 .686.287 1.218t.77.826a2 2 0 0 0 1.071.294 2 2 0 0 0 1.071-.294q.483-.294.77-.826t.287-1.218m6.972-3.892q.42 0 .707.238t.287.56q0 .434-.224.651a.74.74 0 0 1-.532.217q-.21 0-.476-.098l-.189-.056a1.1 1.1 0 0 0-.315-.042q-.364 0-.7.224-.336.225-.553.679t-.217 1.085v3.318a.84.84 0 0 1-.238.609.8.8 0 0 1-.602.245.8.8 0 0 1-.602-.245.84.84 0 0 1-.238-.609v-5.782a.84.84 0 0 1 .238-.609.8.8 0 0 1 .602-.245q.364 0 .602.245a.84.84 0 0 1 .238.609v.182a2.1 2.1 0 0 1 .924-.875q.601-.3 1.288-.301m5.796 6.048q.196 0 .357.189a.74.74 0 0 1 .161.497q0 .378-.413.637a1.7 1.7 0 0 1-.931.259q-.868 0-1.463-.371-.595-.37-.595-1.575V13.19h-.644a.76.76 0 0 1-.56-.224.76.76 0 0 1-.224-.56.72.72 0 0 1 .224-.539.77.77 0 0 1 .56-.217h.644v-.896q0-.365.245-.609a.83.83 0 0 1 .609-.245q.35 0 .588.245a.84.84 0 0 1 .238.609v.896h.994a.76.76 0 0 1 .56.224.76.76 0 0 1 .224.56.72.72 0 0 1-.224.539.77.77 0 0 1-.56.217h-.994v3.794q0 .294.154.427t.42.133q.112 0 .308-.056a.8.8 0 0 1 .322-.07m14.672-6.048q1.386 0 1.918.847t.532 2.345v3.584a.84.84 0 0 1-.238.609.8.8 0 0 1-.602.245.8.8 0 0 1-.602-.245.84.84 0 0 1-.238-.609v-3.584q0-.77-.301-1.211-.3-.441-1.057-.441-.784 0-1.225.469-.441.47-.441 1.183v3.584a.84.84 0 0 1-.238.609.8.8 0 0 1-.602.245.8.8 0 0 1-.602-.245.84.84 0 0 1-.238-.609v-3.584q0-.77-.301-1.211-.3-.441-1.057-.441-.784 0-1.225.469-.441.47-.441 1.183v3.584a.84.84 0 0 1-.238.609.8.8 0 0 1-.602.245.8.8 0 0 1-.602-.245.84.84 0 0 1-.238-.609v-5.782a.84.84 0 0 1 .238-.609.8.8 0 0 1 .602-.245q.364 0 .602.245a.84.84 0 0 1 .238.609v.224q.378-.504.959-.861a2.4 2.4 0 0 1 1.295-.357q1.764 0 2.254 1.54.322-.588.973-1.064a2.44 2.44 0 0 1 1.477-.476m10.99 3.71a.72.72 0 0 1-.266.546.9.9 0 0 1-.588.21h-4.62q.168.825.77 1.295t1.358.469q.574 0 .896-.105t.511-.224q.189-.12.259-.161.252-.126.476-.126.294 0 .504.21t.21.49q0 .377-.392.686-.391.323-1.05.546-.658.224-1.33.224-1.176 0-2.051-.49a3.4 3.4 0 0 1-1.351-1.351q-.476-.86-.476-1.939 0-1.204.504-2.114.505-.91 1.33-1.393a3.44 3.44 0 0 1 1.764-.483 3.27 3.27 0 0 1 1.743.504q.819.504 1.309 1.358t.49 1.848m-3.542-2.17q-1.624 0-1.918 1.526h3.668v-.098q-.056-.588-.574-1.008a1.82 1.82 0 0 0-1.176-.42m16.058 2.352q0 1.12-.504 2.009a3.56 3.56 0 0 1-1.379 1.379 3.9 3.9 0 0 1-1.925.49q-1.064 0-1.932-.49a3.6 3.6 0 0 1-1.372-1.379q-.504-.889-.504-2.009t.504-2.009a3.6 3.6 0 0 1 1.372-1.386 3.8 3.8 0 0 1 1.932-.497q1.05 0 1.925.497a3.6 3.6 0 0 1 1.379 1.386q.504.889.504 2.009m-1.68 0q0-.686-.287-1.225a2.1 2.1 0 0 0-.77-.833 2 2 0 0 0-1.071-.294 2 2 0 0 0-1.071.294 2.1 2.1 0 0 0-.77.833q-.287.54-.287 1.225 0 .686.287 1.218t.77.826a2 2 0 0 0 1.071.294 2 2 0 0 0 1.071-.294q.483-.294.77-.826t.287-1.218m7.084-3.892q1.428 0 1.974.847t.546 2.345v3.584a.84.84 0 0 1-.238.609.8.8 0 0 1-.602.245.8.8 0 0 1-.602-.245.84.84 0 0 1-.238-.609v-3.584q0-.77-.322-1.211t-1.106-.441q-.812 0-1.274.469-.462.47-.462 1.183v3.584a.84.84 0 0 1-.238.609.8.8 0 0 1-.602.245.8.8 0 0 1-.602-.245.84.84 0 0 1-.238-.609v-5.782a.84.84 0 0 1 .238-.609.8.8 0 0 1 .602-.245q.364 0 .602.245a.84.84 0 0 1 .238.609v.238q.378-.504.987-.868a2.56 2.56 0 0 1 1.337-.364m15.904 6.174a1 1 0 0 1 .14.273.9.9 0 0 1 .056.301.8.8 0 0 1-.287.63.98.98 0 0 1-.665.252.77.77 0 0 1-.63-.322l-3.038-4.004-1.33 1.274v2.198a.82.82 0 0 1-.245.616q-.245.238-.637.238a.84.84 0 0 1-.623-.245.83.83 0 0 1-.245-.609v-8.092q0-.365.252-.609a.9.9 0 0 1 .644-.245q.378 0 .616.238a.83.83 0 0 1 .238.616v3.808l4.48-4.41q.322-.322.686-.322.322 0 .546.266t.224.56-.252.546l-3.052 2.912zm8.722-2.282q0 1.12-.504 2.009a3.56 3.56 0 0 1-1.379 1.379 3.9 3.9 0 0 1-1.925.49q-1.064 0-1.932-.49a3.6 3.6 0 0 1-1.372-1.379q-.504-.889-.504-2.009t.504-2.009a3.6 3.6 0 0 1 1.372-1.386 3.8 3.8 0 0 1 1.932-.497q1.05 0 1.925.497a3.6 3.6 0 0 1 1.379 1.386q.504.889.504 2.009m-1.68 0q0-.686-.287-1.225a2.1 2.1 0 0 0-.77-.833 2 2 0 0 0-1.071-.294 2 2 0 0 0-1.071.294 2.1 2.1 0 0 0-.77.833q-.287.54-.287 1.225 0 .686.287 1.218t.77.826a2 2 0 0 0 1.071.294 2 2 0 0 0 1.071-.294q.483-.294.77-.826t.287-1.218m3.724.28a.84.84 0 0 1-.609-.238.8.8 0 0 1-.245-.602q0-.35.245-.588a.84.84 0 0 1 .609-.238h2.436q.365 0 .609.245a.83.83 0 0 1 .245.609.77.77 0 0 1-.245.581.85.85 0 0 1-.609.231zm8.498-5.418q-.476 0-.672.273a1 1 0 0 0-.196.595v.658h1.274q.335 0 .56.217.224.217.224.553a.74.74 0 0 1-.224.553.77.77 0 0 1-.56.217h-1.274v4.956a.84.84 0 0 1-.238.609.8.8 0 0 1-.602.245.8.8 0 0 1-.602-.245.84.84 0 0 1-.238-.609V13.19h-.756a.77.77 0 0 1-.56-.217.74.74 0 0 1-.224-.553q0-.336.224-.553a.77.77 0 0 1 .56-.217h.756v-.644q0-1.05.721-1.708.72-.658 2.079-.658.517 0 .903.21.385.21.385.644a.77.77 0 0 1-.196.546q-.196.21-.476.21a1 1 0 0 1-.147-.014l-.161-.028a2.4 2.4 0 0 0-.56-.084m3.822 8.022a.84.84 0 0 1-.238.609.8.8 0 0 1-.602.245.8.8 0 0 1-.602-.245.84.84 0 0 1-.238-.609v-5.782a.84.84 0 0 1 .238-.609.8.8 0 0 1 .602-.245q.364 0 .602.245a.84.84 0 0 1 .238.609zm-.854-7.546q-.476 0-.672-.154-.195-.155-.196-.546v-.266q0-.392.21-.546t.672-.154q.49 0 .686.154.196.155.196.546V9.9q0 .406-.203.553t-.693.147"/></g></svg>