<svg fill="none" height="63" width="63" xmlns="http://www.w3.org/2000/svg"><g stroke-width="1.12452"><path d="m31.5 62.986c17.39 0 31.486-14.096 31.486-31.486s-14.096-31.486-31.486-31.486-31.486 14.096-31.486 31.486 14.096 31.486 31.486 31.486" fill="#0098ea"/><path d="m42.25 17.587h-21.5c-3.954 0-6.46 4.265-4.471 7.712l13.27 23.002c.866 1.502 3.036 1.502 3.902 0l13.274-23.001c1.987-3.44-.52-7.712-4.47-7.712zm-12.712 23.817-2.89-5.594-6.975-12.473a1.218 1.218 0 0 1 1.072-1.822h8.79v19.892zm13.78-18.07-6.971 12.479-2.89 5.59v-19.89h8.79a1.218 1.218 0 0 1 1.072 1.822" fill="#fff"/></g></svg>