<svg xmlns="http://www.w3.org/2000/svg" data-name="Calque 1" style="width:4rem;height:4rem" viewBox="0 0 64 64"><path fill="#f7931a" d="M63.042 39.741c-4.274 17.143-21.64 27.576-38.786 23.301C7.116 58.768-3.318 41.404.959 24.262 5.23 7.118 22.596-3.316 39.738.958c17.146 4.274 27.579 21.64 23.304 38.783" style="fill:#ff060a;fill-opacity:1;stroke-width:1.00004"/><path d="M61.55 19.28c-3-2.77-7.15-7-10.53-10l-.2-.14a3.8 3.8 0 0 0-1.11-.62C41.56 7 3.63-.09 2.89 0a1.4 1.4 0 0 0-.58.22l-.19.15a2.2 2.2 0 0 0-.52.84l-.05.13v.82C5.82 14.05 22.68 53 26 62.14c.2.62.58 1.8 1.29 1.86h.16c.38 0 2-2.14 2-2.14S58.41 26.74 61.34 23a9.5 9.5 0 0 0 1-1.48 2.41 2.41 0 0 0-.79-2.24m-24.67 4.09 12.36-10.25 7.25 6.68Zm-4.8-.67L10.8 5.26l34.43 6.35ZM34 27.27l21.78-3.51-24.9 30zM7.91 7 30.3 26l-3.24 27.78Z" style="fill:#fff" transform="translate(11.402 12.116)scale(.71798)"/></svg>