<svg style="width: 4rem; height: 4rem" xmlns:dc="http://purl.org/dc/elements/1.1/" xmlns:cc="http://creativecommons.org/ns#" xmlns:rdf="http://www.w3.org/1999/02/22-rdf-syntax-ns#" xmlns:svg="http://www.w3.org/2000/svg" xmlns="http://www.w3.org/2000/svg" xmlns:sodipodi="http://sodipodi.sourceforge.net/DTD/sodipodi-0.dtd" xmlns:inkscape="http://www.inkscape.org/namespaces/inkscape" data-name="Calque 1" viewBox="0 0 64 64" version="1.1" sodipodi:docname="tron-trx-logo.svg" inkscape:version="1.0.2 (e86c870879, 2021-01-15)"><sodipodi:namedview pagecolor="#ffffff" bordercolor="#666666" borderopacity="1" objecttolerance="10" gridtolerance="10" guidetolerance="10" inkscape:pageopacity="0" inkscape:pageshadow="2" inkscape:window-width="1914" inkscape:window-height="1050" id="namedview18" showgrid="false" inkscape:zoom="9.5263252" inkscape:cx="-10.956967" inkscape:cy="28.92145" inkscape:window-x="0" inkscape:window-y="24" inkscape:window-maximized="0" inkscape:current-layer="Calque_1"/><defs id="defs10"><style id="style8">.cls-1{fill:#ff060a;}</style></defs><title id="title12">tron</title><path d="M 63.042175,39.741192 C 58.76772,56.884018 41.40287,67.316913 24.256044,63.041956 7.1162186,58.767999 -3.3178928,41.404175 0.95856266,24.262349 5.2310178,7.1175235 22.595867,-3.3163707 39.737693,0.95758597 56.883519,5.2315427 67.31663,22.597366 63.042175,39.741192 Z" fill="#f7931a" id="path2" style="fill:#ff060a;fill-opacity:1;stroke-width:1.00004"/><g id="tron" transform="matrix(0.71797648,0,0,0.71797648,11.401852,12.116168)" style="fill:#ffffff"><path class="cls-1" d="m 61.55,19.28 c -3,-2.77 -7.15,-7 -10.53,-10 L 50.82,9.14 A 3.82,3.82 0 0 0 49.71,8.52 v 0 C 41.56,7 3.63,-0.09 2.89,0 A 1.4,1.4 0 0 0 2.31,0.22 L 2.12,0.37 A 2.23,2.23 0 0 0 1.6,1.21 L 1.55,1.34 V 2.05 2.16 C 5.82,14.05 22.68,53 26,62.14 c 0.2,0.62 0.58,1.8 1.29,1.86 h 0.16 c 0.38,0 2,-2.14 2,-2.14 0,0 28.96,-35.12 31.89,-38.86 a 9.46,9.46 0 0 0 1,-1.48 2.41,2.41 0 0 0 -0.79,-2.24 z M 36.88,23.37 49.24,13.12 56.49,19.8 Z M 32.08,22.7 10.8,5.26 45.23,11.61 Z m 1.92,4.57 21.78,-3.51 -24.9,30 z M 7.91,7 30.3,26 27.06,53.78 Z" id="path14" style="fill:#ffffff"/></g></svg>
