<svg height="448" viewBox="0 0 448 448" width="448" xmlns="http://www.w3.org/2000/svg"><path d="m31.5 31.5c-31.5 31.5-31.5 82.2-31.5 183.5v18c0 101.3 0 152 31.5 183.5s82.2 31.5 183.5 31.5h18c101.3 0 152 0 183.5-31.5s31.5-82.2 31.5-183.5v-18c0-101.3 0-152-31.5-183.5s-82.2-31.5-183.5-31.5h-18c-101.3 0-152 0-183.5 31.5m44.1 104.8h51.1c1.7 85.5 39.4 121.7 69.3 129.1v-129.1h48.2v73.7c29.5-3.2 60.4-36.8 70.9-73.7h48.2c-4 19.1-11.8 37.3-23.1 53.3s-25.7 29.5-42.5 39.6c18.7 9.3 35.2 22.4 48.4 38.6 13.3 16.1 22.9 34.8 28.4 54.9h-53.1c-4.8-17.4-14.8-33.1-28.5-44.9a92.4 92.4 0 0 0 -48.7-21.7v66.6h-5.8c-102.1 0-160.4-70-162.8-186.4"/></svg>