<svg version="1.0" xmlns="http://www.w3.org/2000/svg" width="346.667" height="346.667" viewBox="0 0 260 260"><path d="M115 .7C79.3 6.2 52.9 20.5 31 46 10.2 70.2-.3 100 .5 133c.2 8 .6 15.8 1 17.5 2.1 10.1 2.8 12.8 5.1 20 7.2 22.4 21.1 43.1 39.4 58.6 16.6 14.1 36.4 23.7 59.1 28.5 11.7 2.5 38.1 2.5 49.9 0 31.1-6.7 56.9-22.4 76.5-46.6 12.7-15.7 23.4-38.9 26.1-56.5.3-2.2 1-6 1.4-8.5.9-4.8.6-30.2-.5-36-1.2-6.7-4.7-20.5-6-23.5-.7-1.7-2.3-5.5-3.5-8.5-6.5-16.4-21.5-36.3-36.1-48.1-16-13-37-23.1-55.4-26.9-2.7-.5-6.3-1.2-8-1.6C146 .7 118.6.1 115 .7z"/></svg>